<svg id="图层_1" data-name="图层 1" xmlns="http://www.w3.org/2000/svg" viewBox="0 0 674.5 265.91"><defs><style>.cls-1{fill:#0c2474;}.cls-1,.cls-2{fill-rule:evenodd;}.cls-2{fill:#83d3eb;}</style></defs><title>EMC</title><path class="cls-1" d="M96,30.5V61h34V50H109V35h20V24H109V11h21V0H96V30.5M463.6,2.71c-.32,1.53-2.38,14.59-4.59,29s-4,26.91-4,27.75c0,1.21,1.27,1.54,6,1.54,5.4,0,6-.22,6.44-2.25.26-1.24,1.19-8.55,2.07-16.25s1.88-15.53,2.2-17.4c.55-3.19.73-2.92,2.9,4.5,1.28,4.35,4.07,13.07,6.2,19.4l3.89,11.5h12.53l5.9-18.84c3.24-10.36,5.93-19.58,6-20.5s1.39,6.89,3,17.34S515,58.29,515,59.25c0,1.48,1,1.75,6.53,1.75,5.72,0,6.5-.23,6.5-1.9,0-1-1.81-13.53-4-27.75s-4.27-27.11-4.59-28.64c-.56-2.78-.61-2.79-7.64-2.5L504.67.5l-4.38,13c-2.41,7.15-5.38,16.41-6.6,20.58l-2.23,7.59L485,21.08,478.5.5,471.34.21c-7.12-.29-7.17-.28-7.74,2.5m90.45-1A30.71,30.71,0,0,0,545,8a26.75,26.75,0,0,0-6.55,10.1c-1.31,3.77-1.89,8.2-1.89,14.44,0,5,.6,10.71,1.37,12.88a28.18,28.18,0,0,0,4.92,7.82,31.89,31.89,0,0,0,7.47,5.94,35.28,35.28,0,0,0,10.57,2.55A51.94,51.94,0,0,0,573.31,61c3.2-.66,6.06-1.85,6.36-2.64s.26-3.38-.1-5.77l-.65-4.34-6.13,1.41C568,50.82,565.66,50.88,562,50a15.77,15.77,0,0,1-7.19-3.81,19.93,19.93,0,0,1-3.62-6.08A39.22,39.22,0,0,1,550,30.32c0-3.51.62-7.83,1.38-9.6A22.55,22.55,0,0,1,556,14.5c3.13-2.93,3.43-3,13-2.89l9.81.1.59-5c.33-2.78.35-5.3,0-5.61S574.26.4,568.67.29c-7.31-.16-11.42.23-14.62,1.39M162.41,12.42a16.31,16.31,0,0,0-5.25,4.1L155,19.27V12H143V61h13V48.25c0-7,.46-14.42,1-16.45a12.86,12.86,0,0,1,3.63-5.75A10.28,10.28,0,0,1,166,24c2,0,2.91-.61,3.35-2.25a33.18,33.18,0,0,0,.62-6.5c0-3.76-.25-4.24-2.24-4.21a17.41,17.41,0,0,0-5.34,1.38m25.09-.83c-1.1.26-3.89,1-6.19,1.56l-4.19,1.08.58,5.13a32.35,32.35,0,0,0,.9,5.52c.17.2,2.14-.36,4.38-1.25A30.78,30.78,0,0,1,192.52,22c4.15,0,6,.49,7.48,2a7.17,7.17,0,0,1,2,4.27c0,2.07-.72,2.39-7.65,3.5a38.77,38.77,0,0,0-12.09,3.82,14.5,14.5,0,0,0-6.33,6.76A21.65,21.65,0,0,0,174,49.3a15,15,0,0,0,1.53,5.79A15,15,0,0,0,180.3,60,15.71,15.71,0,0,0,188,62a25.17,25.17,0,0,0,8.65-1.9c2.28-1,4.63-2.71,5.22-3.72.92-1.59,1.07-1.4,1.1,1.4L203,61h12V41.73c0-16.8-.23-19.7-1.84-22.69a15.52,15.52,0,0,0-5.62-5.4c-2.46-1.28-6.24-2.05-10.9-2.24a55.18,55.18,0,0,0-9.14.19m49.63.91a21.59,21.59,0,0,0-7.23,4.1,18,18,0,0,0-4,6.17,17.41,17.41,0,0,0-.56,7,14.12,14.12,0,0,0,3.22,6.32c1.46,1.52,5.32,3.76,8.58,5s6.36,3,6.88,4a4.55,4.55,0,0,1,.39,3.28c-.31.81-1.87,2-3.45,2.67-2.08.86-4.46.93-8.42.25-3-.52-5.76-.72-6-.44s-.51,2.64-.51,5.24c0,3.39.45,4.9,1.58,5.33.87.34,4.63.61,8.35.61a41.27,41.27,0,0,0,10.17-1.15,30.14,30.14,0,0,0,6.17-3.08,16.25,16.25,0,0,0,4.33-5,19.55,19.55,0,0,0,1.57-7.47,15.28,15.28,0,0,0-1.65-7c-.91-1.39-5.09-4.17-9.33-6.2-6.52-3.13-7.69-4.07-7.69-6.16a4,4,0,0,1,2.5-3.72c1.61-.81,4.37-1,7.75-.65l5.25.61v-5c0-4.81-.12-5-3.12-5.63a37.26,37.26,0,0,0-6.75-.56,34.53,34.53,0,0,0-8,1.43m51.87.09a24.91,24.91,0,0,0-6.05,4L280.4,19l.41-3.5.41-3.49H268V61h12.75l.45-14.25c.32-10.33.88-15.08,2-17.25a19.34,19.34,0,0,1,3.43-4.63,12.8,12.8,0,0,1,4-2.27,4.47,4.47,0,0,1,4.19,1.13c1.95,1.65,2.11,3,2.4,19.52L297.5,61h12.28l.4-14.25c.31-10.53.83-15,2-17.25a19.93,19.93,0,0,1,3.46-4.63,12.8,12.8,0,0,1,4-2.27A4.89,4.89,0,0,1,324,23.81c2.24,1.82,2.29,2.3,2.27,19.53l0,17.66h13.66l-.35-19.84c-.29-15.87-.68-20.46-2-23a14.84,14.84,0,0,0-4.07-4.75,18.51,18.51,0,0,0-6.36-2.13,20.63,20.63,0,0,0-7.63.7,25.57,25.57,0,0,0-7.28,4.37c-2.7,2.36-3.7,2.79-4.06,1.71a12.33,12.33,0,0,0-2.85-3.63,13.35,13.35,0,0,0-5.48-2.82,30.9,30.9,0,0,0-5.23-.58A19.36,19.36,0,0,0,289,12.59m128-.48a26.23,26.23,0,0,0-6.27,3.05,17.2,17.2,0,0,0-4.44,5.17,18.66,18.66,0,0,0-1.57,7.46,15.2,15.2,0,0,0,1.7,6.79c.91,1.38,5.11,4.18,9.34,6.22,6.54,3.14,7.7,4.07,7.7,6.19,0,1.75-.85,2.89-2.88,3.86-2.2,1.06-4.25,1.16-8.67.45l-5.78-.93-.38,5.06c-.2,2.82.09,5.4.67,5.8s4.19.74,8,.75a52.85,52.85,0,0,0,11-1.09,21.54,21.54,0,0,0,7.67-4.8,15.5,15.5,0,0,0,4.38-7.38,17.63,17.63,0,0,0,.08-6.13,16.93,16.93,0,0,0-3.05-5.33c-1.34-1.59-5.38-4.15-9-5.67-4-1.71-6.75-3.53-7.14-4.72a3.92,3.92,0,0,1,.51-3.31,7.6,7.6,0,0,1,3.47-1.94,20.76,20.76,0,0,1,6.85.25l4.49.84.51-5.1c.27-2.81.34-5.27.15-5.48s-3.41-.53-7.14-.72a39.24,39.24,0,0,0-10.25.71m-65,19.14c.09,11.17.64,20.7,1.29,22.71a12.33,12.33,0,0,0,4.54,5.75c2.49,1.68,4.83,2.29,8.8,2.29a23,23,0,0,0,8.6-1.62,28.82,28.82,0,0,0,4.95-3.16c1.61-1.41,1.75-1.32,1.75,1.13s.13,2.65,6.5,2.65H395V11.91l-6.75.29-6.75.3L381,28.1c-.37,11.51-.88,16.1-2,17.5a28.29,28.29,0,0,1-3.5,3.63A9.53,9.53,0,0,1,370.28,51c-2.17,0-3.55-.61-4.25-1.91-.6-1.13-1-9.31-1-19.5V12H351.9l.17,19.25M192.69,41a14.78,14.78,0,0,0-4.25,2A6.08,6.08,0,0,0,187,47.14c0,2.09.67,3.21,2.4,4a7,7,0,0,0,5.25.15,12.3,12.3,0,0,0,5.1-4.27C201,45.2,202,42.87,202,41.85c0-1.44-.72-1.83-3.25-1.76a27.14,27.14,0,0,0-6.06.93M132.36,78.49a2.35,2.35,0,0,0,3.15,3.15,2.19,2.19,0,0,0,1.3-2.37,2.82,2.82,0,0,0-2.08-2.08,2.19,2.19,0,0,0-2.37,1.3m62.26.05a3.46,3.46,0,0,0-.06,2.55,3.4,3.4,0,0,0,2.57.91c1.51,0,1.93-.56,1.69-2.24a3,3,0,0,0-1.94-2.55,2.13,2.13,0,0,0-2.26,1.33M287,80c0,2.52-.39,3-2.46,3a7.21,7.21,0,0,0-4.5,2.19,8.71,8.71,0,0,0-2,6c0,2.82.57,4.16,2.25,5.25,1.53,1,3.61,1.28,6.5.89l4.25-.57V86.87c0-9.2-.14-9.87-2-9.87-1.56,0-2,.67-2,3m8.36-1.51a2.35,2.35,0,0,0,3.15,3.15,2.19,2.19,0,0,0,1.3-2.37,2.82,2.82,0,0,0-2.08-2.08,2.19,2.19,0,0,0-2.37,1.3M332,87V97h5V77h-5V87m202-7c0,2.51-.4,3-2.43,3a6.48,6.48,0,0,0-4.5,2.64,10.51,10.51,0,0,0-2.07,5.5,8.1,8.1,0,0,0,2.09,5c1.39,1.39,2.82,1.9,4.25,1.52a21.09,21.09,0,0,1,4.41-.6c2.18,0,2.25-.31,2.25-10,0-9.33-.13-10-2-10-1.56,0-2,.67-2,3M96,85.93c0,5.73.42,8.34,1.51,9.43A10.27,10.27,0,0,0,101,97.51,11.21,11.21,0,0,0,106.5,97c2.84-.94,3.65-1.86,4.53-5.12a32.1,32.1,0,0,0,.77-8.68c-.25-4-.63-4.75-2.55-5-2.16-.31-2.25,0-2.25,7.28,0,6.12-.32,7.73-1.64,8.23a4.12,4.12,0,0,1-3.25-.39c-1.18-.74-1.69-2.9-1.9-8.16C100,78.82,99.69,78,98,78s-2,.73-2,7.93m109.25-7.27A2.35,2.35,0,0,0,204,80.72a4.52,4.52,0,0,1-1.75,2.92c-1.67,1.29-1.67,1.43,0,2.72,1.16.9,1.75,2.74,1.75,5.47,0,3.13.49,4.36,2.08,5.21a5.09,5.09,0,0,0,3.5.57A2.41,2.41,0,0,0,211,95.53,1.52,1.52,0,0,0,209.5,94c-1.05,0-1.5-1.06-1.5-3.5s.45-3.5,1.5-3.5c.83,0,1.5-.89,1.5-2s-.67-2-1.5-2-1.5-.94-1.5-2.5c0-1.37-.34-2.46-.75-2.42a10,10,0,0,0-2,.58m34.67,1.09c0,1-.21,2.65-.36,3.75s-.61,4.59-1,7.75c-.72,5.43-.64,5.75,1.36,5.75s2.11-.58,2.11-5c0-2.75.41-5,.9-5s1.44,2.25,2.1,5c1,4.27,1.55,5,3.59,5s2.57-.74,3.53-4.57c.63-2.51,1.51-4.19,1.94-3.75s.94,2.4,1.12,4.32c.26,2.8.79,3.57,2.67,3.83,2.3.33,2.34.19,1.68-5-.38-2.93-1.13-7-1.67-9.14-.78-3.07-1.38-3.75-3.07-3.5-1.43.21-2.54,1.58-3.47,4.29a19.12,19.12,0,0,1-2.26,4.86c-.52.52-1.63-1.46-2.66-4.73-1.48-4.69-2.14-5.61-4.08-5.61-1.51,0-2.35.61-2.4,1.75m112,1.17c-2.12,2.13-2.92,3.89-2.92,6.46a17.34,17.34,0,0,0,1.14,6,7.84,7.84,0,0,0,4.05,3.52,13.25,13.25,0,0,0,5.86.42c2-.4,2.95-1.19,2.95-2.44,0-1.44-.72-1.81-3.34-1.71a10.92,10.92,0,0,1-4.5-.59c-.64-.4-1.16-2.44-1.16-4.54s.65-4.35,1.49-5a5.46,5.46,0,0,1,3.95-.78c1.56.3,2.66,0,3-1a3.06,3.06,0,0,0,0-2.35c-.3-.5-2.14-.91-4.08-.91-2.55,0-4.31.8-6.44,2.92m47.75-2.25a4.25,4.25,0,0,0-.67,2.5A1.7,1.7,0,0,1,397.5,83a1.52,1.52,0,0,0-1.5,1.53,2.47,2.47,0,0,0,1.5,2.11c1.05.4,1.5,2,1.5,5.45,0,4.33.27,4.94,2.44,5.49a5.91,5.91,0,0,0,3.5,0,2.72,2.72,0,0,0,1.06-2.1A1.47,1.47,0,0,0,404.5,94c-1.05,0-1.5-1.06-1.5-3.5s.45-3.5,1.5-3.5c.83,0,1.5-.89,1.5-2s-.67-2-1.5-2-1.5-.94-1.5-2.5-.58-2.5-1.33-2.5a3.21,3.21,0,0,0-2,.67m45,0c-.37.36-.67,4.64-.67,9.5,0,8.75,0,8.83,2.5,8.83,2.06,0,2.5-.48,2.51-2.75V91.5l2.28,2.85c1.55,1.94,3,2.73,4.52,2.5L458,96.5l-2.45-3.59c-2.4-3.53-2.41-3.62-.52-5.24a6.19,6.19,0,0,0,1.93-4.1,5.41,5.41,0,0,0-2.22-4A12,12,0,0,0,448.94,78c-2,0-3.91.3-4.27.67m33.53.53a4.23,4.23,0,0,0-1.2,2.5,1.18,1.18,0,0,1-1,1.3c-.55,0-1,.69-1,1.53a2.47,2.47,0,0,0,1.5,2.11c1.05.4,1.5,2,1.5,5.45,0,4.33.27,4.94,2.44,5.49a5.91,5.91,0,0,0,3.5,0,2.72,2.72,0,0,0,1.06-2.1A1.47,1.47,0,0,0,483.5,94c-1.05,0-1.5-1.06-1.5-3.5s.45-3.5,1.5-3.5c.83,0,1.5-.89,1.5-2s-.67-2-1.5-2-1.5-.94-1.5-2.5c0-1.39-.58-2.5-1.3-2.5a4.23,4.23,0,0,0-2.5,1.2m12.05-.54A2.72,2.72,0,0,0,489,81.08c0,1.06-.45,1.92-1,1.92s-1,.9-1,2,.45,2,1,2,1,2,1,4.46c0,3.47.46,4.71,2,5.56a6,6,0,0,0,4,.47c1.08-.35,2-1.22,2-1.94s-.9-1.55-2-1.84c-1.43-.38-2-1.36-2-3.5s.57-3.12,2-3.5a2.56,2.56,0,0,0,2-2.12c0-.92-.84-1.59-2-1.59-1.47,0-2-.67-2-2.5,0-1.37-.34-2.46-.75-2.42a10,10,0,0,0-2,.58M449,84c0,1.51.52,2,1.75,1.81a1.81,1.81,0,0,0,0-3.62C449.52,82,449,82.49,449,84m-333,6c0,6.22.2,7,2,7s2-.82,2.25-4.74c.22-3.57.73-4.82,2-5.07,1.48-.29,1.75.45,1.75,4.74s.25,5.07,2,5.07,2-.52,1.75-6.75l-.3-6.75-5.75-.2L116,83.11v6.94m17,0c0,6.33.19,7,2,7s2-.67,2-7-.19-7-2-7-2,.67-2,7m7-5.85a44.85,44.85,0,0,0,2.13,7c1.79,4.88,2.53,5.85,4.5,5.85,1.3,0,2.37-.17,2.37-.38s1.12-3.36,2.49-7L154,83h-2.45c-2,0-2.67.75-3.69,4.14l-1.24,4.15-1.38-4.15c-1-2.93-1.94-4.14-3.3-4.14-1.06,0-1.92.52-1.92,1.15m16.56,1.07A10.35,10.35,0,0,0,155,90.29,12,12,0,0,0,156,95a6.14,6.14,0,0,0,3.5,2.45,12.18,12.18,0,0,0,5,0c1.4-.35,2.5-1.35,2.5-2.27,0-1.22-.93-1.64-3.66-1.64-2,0-3.84-.56-4.08-1.25-.3-.88,1-1.25,4.27-1.25,4.61,0,4.68,0,4-2.74a12.59,12.59,0,0,0-1.73-4c-.58-.69-2.54-1.26-4.37-1.26-2.29,0-3.8.68-4.87,2.22M171,90.06c0,6.27.19,6.94,2,6.94,1.61,0,2-.67,2-3.42a18.11,18.11,0,0,1,.61-5,2.44,2.44,0,0,1,2-1.58c.76,0,1.39-.85,1.39-1.88,0-1.52-.77-1.89-4-1.94l-4-.05v6.93m11.57-5.49a5.35,5.35,0,0,0-1.57,3A3.77,3.77,0,0,0,182.25,90c.69.59,2.15,1.72,3.25,2.51,1.94,1.39,1.92,1.44-.64,1.47-1.46,0-2.9.68-3.2,1.48s.21,1.69,1.37,2.06a7.72,7.72,0,0,0,4.7-.71,5,5,0,0,0,3.09-4.06c.25-2.17-.22-2.94-2.25-3.72-1.41-.53-2.57-1.43-2.57-2s.9-1,2-1,2-.67,2-1.5c0-1-1-1.5-2.93-1.5a7.34,7.34,0,0,0-4.5,1.57M195,90c0,6.33.19,7,2,7s2-.67,2-7-.19-7-2-7-2,.67-2,7m18-6.62c0,.21,1.12,3.35,2.48,7s2.22,7.28,1.89,8.12a2.79,2.79,0,0,1-2.48,1.53,1.75,1.75,0,0,0-1.89,2c0,1.15.67,2,1.57,2a8.8,8.8,0,0,0,3.4-1c1-.54,3.17-4.25,4.82-8.25s3.3-8.32,3.69-9.6c.61-2,.4-2.29-1.55-2-1.56.23-2.63,1.42-3.44,3.83l-1.17,3.5L219,86.75c-1-2.85-1.91-3.75-3.66-3.75-1.27,0-2.3.17-2.3.38m51.59,1.52c-1.2,1.33-1.62,3.2-1.4,6.24.26,3.62.78,4.57,3.1,5.67a9.63,9.63,0,0,0,5.8.67c2.05-.45,2.92-1.18,2.71-2.27s-1.41-1.62-3.71-1.66c-1.88,0-3.6-.61-3.83-1.3-.3-.86.83-1.25,3.66-1.25,3.86,0,4.08-.16,4.08-3,0-1.91-.69-3.34-1.93-4a11,11,0,0,0-4.35-1,6.42,6.42,0,0,0-4.13,1.9M295,90c0,6.8.07,7,2.5,7s2.5-.2,2.5-7-.07-7-2.5-7-2.5.2-2.5,7m10-5a8,8,0,0,0-2,5.07A12.68,12.68,0,0,0,304,95a6,6,0,0,0,3.42,2.43,8,8,0,0,0,4,0A2.73,2.73,0,0,0,313,95c0-1.25-.56-1.66-1.82-1.33a3.32,3.32,0,0,1-3.08-1,4.24,4.24,0,0,1-.62-3.57,3,3,0,0,1,3.09-2c1.76,0,2.43-.55,2.43-2s-.67-2-3-2a8,8,0,0,0-5,2m12,.08c0,1.78.42,2,2.91,1.44,1.62-.36,3.18-.19,3.54.39s-.61,1.33-2.16,1.7a13.26,13.26,0,0,0-4,1.65A4.77,4.77,0,0,0,316,93.59a3.86,3.86,0,0,0,1.75,3.22c1,.48,3.66.68,6,.43l4.25-.45V91.1c0-3.14-.54-6.24-1.2-6.9s-3.14-1.2-5.5-1.2c-3.69,0-4.3.3-4.3,2.08M367,85a7.51,7.51,0,0,0-2,4.57A11.29,11.29,0,0,0,366,94a8.8,8.8,0,0,0,3.06,3,8.56,8.56,0,0,0,5,.45c1.83-.41,2.94-1.28,2.94-2.33,0-1.22-.86-1.68-3.16-1.67-1.73,0-3.34-.55-3.58-1.24-.29-.87.83-1.25,3.66-1.25,3.24,0,4.08-.36,4.08-1.78a8.71,8.71,0,0,0-1.56-4,5.28,5.28,0,0,0-4.5-2.22A8,8,0,0,0,367,85m14,5.1c0,6.65.09,6.9,2.45,6.9,2.2,0,2.47-.46,2.75-4.75.21-3.42.72-4.75,1.8-4.75s1.59,1.33,1.8,4.75c.26,3.93.64,4.75,2.25,4.75s1.95-.72,1.95-5.88c0-3.57-.51-6.29-1.28-6.94s-3.64-1.05-6.5-1l-5.22,0V90.1m29.59-5.2c-1.2,1.33-1.62,3.2-1.4,6.24.26,3.62.78,4.57,3.1,5.67a9.63,9.63,0,0,0,5.8.67c2.05-.45,2.92-1.18,2.71-2.27s-1.41-1.62-3.71-1.66c-1.88,0-3.6-.61-3.83-1.3-.3-.86.83-1.25,3.66-1.25,3.86,0,4.08-.16,4.08-3,0-1.91-.69-3.34-1.93-4a11,11,0,0,0-4.35-1,6.42,6.42,0,0,0-4.13,1.9M425,90.06c0,6.27.19,6.94,2,6.94,1.61,0,2-.67,2-3.42a18.11,18.11,0,0,1,.61-5,2.44,2.44,0,0,1,2-1.58c.76,0,1.39-.85,1.39-1.88,0-1.52-.77-1.89-4-1.94l-4-.05v6.93m36.95-5c-1.56,1.56-2,3.08-1.75,6.25.25,3.46.79,4.42,3.13,5.53A5.74,5.74,0,0,0,469,97a7.1,7.1,0,0,0,4-4.45,8.66,8.66,0,0,0,.12-5.76,5.94,5.94,0,0,0-2.62-3.14,13.79,13.79,0,0,0-4.07-.64,7.45,7.45,0,0,0-4.47,2m39,0c-1.47,1.48-2,3.07-1.75,5.65a7.1,7.1,0,0,0,2.94,5.55,6.23,6.23,0,0,0,5.75,1.27c2-.45,3.12-1.3,3.12-2.41,0-1.36-.7-1.64-3.36-1.33-2.4.28-3.53-.06-4-1.2-.5-1.31.18-1.59,3.86-1.59s4.47-.34,4.47-1.78a8.71,8.71,0,0,0-1.56-4,5.28,5.28,0,0,0-4.5-2.22,8.06,8.06,0,0,0-5,2.06m14.06,5c0,6.74.07,6.94,2.5,6.94s2.5-.36,2.5-4.53c0-3.11.47-4.71,1.5-5.11A2.64,2.64,0,0,0,523,85c0-1.39-.86-1.79-4-1.83l-4-.05v6.93m28-5c0,1.79.42,2,3,1.42,1.65-.36,3-.25,3,.24s-1.46,1.54-3.25,2.33c-2.32,1-3.34,2.19-3.56,4.11s.3,3,1.77,3.8a3.9,3.9,0,0,0,3.28.37,8.34,8.34,0,0,1,4-.53c2.7.21,2.78.07,2.78-4.87,0-2.8-.47-6-1-7-.79-1.47-2.11-1.93-5.5-1.93-3.86,0-4.47.28-4.47,2.08m15,5c0,6.22.19,6.89,2,6.89,1.51,0,2-.67,2-2.75a24.16,24.16,0,0,1,.62-5c.33-1.24,1.23-2.25,2-2.25,1,0,1.38,1.41,1.38,5,0,4.33.27,5,2,5,1.51,0,2-.67,2-2.75a24.16,24.16,0,0,1,.62-5c.33-1.24,1.23-2.25,2-2.25,1,0,1.38,1.41,1.38,5,0,4.67.17,5,2.5,5s2.5-.33,2.5-5.07c0-2.78-.44-5.89-1-6.9-.86-1.59-2.28-1.84-10.5-1.82l-9.52,0v6.88M159.5,87c-.34.55.31,1,1.44,1s2.06-.45,2.06-1-.65-1-1.44-1a2.65,2.65,0,0,0-2.06,1m108,0c-.34.55.34,1,1.5,1s1.84-.45,1.5-1a1.63,1.63,0,0,0-3,0M283,88a6,6,0,0,0-.47,4c.34,1.08,1.05,2,1.58,2s1.45-1.1,2.06-2.44a6.31,6.31,0,0,0,.51-4c-.33-.86-1.05-1.56-1.59-1.56s-1.49.92-2.09,2m87.52-1c-.34.55.08,1,.94,1s1.56-.45,1.56-1a1,1,0,0,0-.94-1,2.14,2.14,0,0,0-1.56,1m43,0c-.34.55.34,1,1.5,1s1.84-.45,1.5-1a1.63,1.63,0,0,0-3,0M504,87c0,.55.67,1,1.5,1s1.5-.45,1.5-1-.67-1-1.5-1-1.5.45-1.5,1m27.25-.34c-.69.28-1.25,2-1.25,3.92,0,2.26.47,3.42,1.39,3.42a2.44,2.44,0,0,0,2-1.58,13.46,13.46,0,0,0,.61-4c0-1.33-.34-2.38-.75-2.34a10,10,0,0,0-2,.58m-66.87,1.78a7.13,7.13,0,0,0-.2,3.25,2.37,2.37,0,0,0,2.33,1.81c1.51,0,2.07-.78,2.3-3.25.27-2.73,0-3.25-1.78-3.25a3,3,0,0,0-2.65,1.44M321.75,91.69c-1,.25-1.75.87-1.75,1.38s.63.93,1.39.93a2.36,2.36,0,0,0,2-1.5c.32-.83.48-1.45.36-1.38s-1,.32-2,.57M547,92c-.79.49-1.11,1.22-.7,1.63s1.26.21,1.9-.43,1-1.37.7-1.63-1.11-.06-1.9.43"/><path class="cls-2" d="M339,41.22v5.31l4.75,1.19c2.61.66,5.84,1.51,7.17,1.9,2,.59,2.31.42,1.75-1A23.26,23.26,0,0,1,352,42.5c0-4-.25-4.39-2.75-4.85-1.51-.29-4.44-.79-6.5-1.13L339,35.91v5.31m-21.75-1-7.25,2v5.9a34.09,34.09,0,0,0,.25,5.86c.14,0,3.85-1.31,8.25-2.87l8-2.85.3-5.13c.22-3.72-.05-5.1-1-5-.71,0-4.56,1-8.55,2.1M365,44.57a11.53,11.53,0,0,0,1,4.5c.72,1.33,2.1,1.93,4.45,1.93,1.87,0,3.66-.41,4-.91a3.07,3.07,0,0,0,0-2.34c-.3-.79-2.28-2.4-4.39-3.59A24.61,24.61,0,0,0,365.61,42c-.33,0-.61,1.15-.61,2.57m-76.25,7.65c-6.21,3.35-7.75,4.64-7.75,6.48,0,2-.49,2.3-4,2.3-2.92,0-5.8,1.11-10.75,4.14-3.73,2.28-10,6.36-14.07,9.06-6.26,4.23-7.2,5.24-6.62,7.11.37,1.21,1.24,3.54,1.93,5.19l1.26,3,1.47-3.5c.8-1.92,1.74-4.29,2.08-5.25A2.69,2.69,0,0,1,254.61,79a4.05,4.05,0,0,1,2.82,1.57c1,1.37,2.35.81,10.61-4.37,5.2-3.26,14-8.36,19.46-11.33l10-5.41.3-5.73c.17-3.15-.06-5.72-.5-5.71a73.43,73.43,0,0,0-8.55,4.2M231.13,89.58c-4.55,3.59-9.16,8.06-10.26,9.92a10.54,10.54,0,0,1-5.24,4.46c-2,.67-8.37,6.25-17.19,15.16-7.66,7.75-15,14.5-16.32,15s-7.61,2-14,3.42-17.47,4-24.62,5.92S124,149,116,151.54s-22.54,7.82-32.36,11.67-24.89,10.55-33.5,14.86-19.55,10.45-24.32,13.64a177.65,177.65,0,0,0-14.35,10.68,67.08,67.08,0,0,0-8.57,8.9c-1.79,2.48-2.9,5.26-2.9,7.29a7.84,7.84,0,0,0,1.47,4.75,33.89,33.89,0,0,0,4.75,3.5,70.07,70.07,0,0,0,11,4.59C21.4,232.84,26.6,234,28.73,234s4.41-.54,5.07-1.2a4.68,4.68,0,0,0,1.2-2.87,9,9,0,0,0-2-4.16c-1.1-1.39-4-3.05-6.55-3.77a24.5,24.5,0,0,1-7-3.22C18.1,217.72,17,216,17,215s2.62-4.08,6.25-7.1c3.44-2.87,9.85-7.56,14.25-10.42s13.4-7.89,20-11.18,17.83-8.34,25-11.22,18.83-7.4,26-10,18.68-6.39,25.55-8.38,15.88-4.31,20-5.17,10.09-1.91,13.25-2.35c3.34-.46,5.75-.41,5.75.11s-1.37,2.91-3.05,5.35a105.16,105.16,0,0,0-6.51,11.71A82.28,82.28,0,0,0,158.37,181a102.92,102.92,0,0,0-1.6,19.46c0,9.79.45,13.5,2.44,20.16a74,74,0,0,0,5.86,13.88,67.87,67.87,0,0,0,20.94,21,103.08,103.08,0,0,0,14.23,6.71c7.09,2.65,10,3.15,20.43,3.55,9.17.35,14,.05,19.5-1.21a62.67,62.67,0,0,0,10.74-3.37,13.2,13.2,0,0,0,4.44-3.36c.73-1.17.7-2.42-.09-4.17l-1.14-2.49-7.81,2.57c-6.48,2.13-9.77,2.58-19.31,2.63-8.32.05-13.16-.43-17.5-1.73a78.72,78.72,0,0,1-12.5-5.33,82.83,82.83,0,0,1-11.2-7.48,56.75,56.75,0,0,1-8.76-10,61.31,61.31,0,0,1-6.28-13.2c-1.78-5.7-2.19-9.31-2.09-18.12a74.42,74.42,0,0,1,2.2-18.83,72.52,72.52,0,0,1,4.86-12.94,65.91,65.91,0,0,1,8-10.8,47.28,47.28,0,0,1,12-9.21,93.26,93.26,0,0,1,13.76-5.6,163.49,163.49,0,0,1,18-3.66A223.24,223.24,0,0,1,253,137.8c9.49,0,17.47.5,23.11,1.58a130.25,130.25,0,0,1,14.5,3.65,107.68,107.68,0,0,1,11.17,4.67c4.26,2.14,5.82,2.48,8,1.71a4,4,0,0,0,3-3.58c.23-2-.49-3.25-3.06-5.21a49,49,0,0,0-10-5.06,143.9,143.9,0,0,0-16.94-4.68c-8.74-1.85-13.74-2.2-32.81-2.28-12.37-.06-27.11.29-32.75.76-6.38.53-10.25.5-10.25-.09s3.11-4.52,6.91-8.89a204,204,0,0,1,15.25-15.33l8.34-7.39,1.12-7.08a65.58,65.58,0,0,0,.94-7.31,99.28,99.28,0,0,0-8.43,6.31M242,90.71c0,3.27.18,3.54,1.47,2.25a4,4,0,0,0,.88-3.72C244,88,243.37,87,242.88,87s-.88,1.67-.88,3.71m259.88,21.8c-1.45.78-4.05,3.64-5.79,6.35s-6.18,10.68-9.87,17.73c-6.21,11.84-7,12.88-10.22,13.7-2.57.65-6.32,3.78-14.11,11.79s-11.27,10.92-13,10.9a8.4,8.4,0,0,1-3.71-.85c-.73-.46-1.73-2.59-2.23-4.73a47.71,47.71,0,0,1-.93-8.61c0-3.63-.47-5-1.95-5.75a11.35,11.35,0,0,0-4.49-1,35.3,35.3,0,0,1-7-1.18,13.31,13.31,0,0,0-8.66.08c-2.6.78-6.35,3.26-9.69,6.42a54.43,54.43,0,0,0-7.93,9.4c-2.18,3.72-2.35,4.66-1.37,7.61a16.24,16.24,0,0,0,3.59,5.71c1.88,1.76,4,2.44,8.51,2.77,4.88.35,6.42.08,8.13-1.44a21.19,21.19,0,0,0,3.95-6,19.25,19.25,0,0,1,3.35-5.36,3.31,3.31,0,0,1,2.82-.74c.73.28,1.87,2.33,2.54,4.56a14.1,14.1,0,0,0,3.82,6.11c1.81,1.42,4.08,2.05,7.41,2.05a26.12,26.12,0,0,0,7.36-1c1.41-.53,4.72-3.23,7.36-6s5.35-5,6-5,1,.87.73,2.25-1.66,8.55-3.07,16.25-2.74,14.86-3,15.91a6.4,6.4,0,0,0,.58,3.75A4.26,4.26,0,0,0,465,210a5,5,0,0,0,4.44-2.29c.83-1.25,3.32-9.2,5.53-17.65a247.75,247.75,0,0,1,7.47-23.79,128.29,128.29,0,0,1,8.15-16A146.61,146.61,0,0,1,500.06,137a32.52,32.52,0,0,1,11.59-9.12c6.49-3.23,6.87-3.61,7.16-7.18.26-3.07-.23-4.31-2.67-6.75s-3.81-3-7.31-2.94a17.81,17.81,0,0,0-6.95,1.47M652.5,141.16a15.58,15.58,0,0,0-3.73,3.22c-.95,1.17-2.88,5.57-4.3,9.79s-3.2,8.19-4,8.82-4,1.53-7.19,2a72.87,72.87,0,0,0-12.59,3.44c-3.73,1.42-8.08,2.58-9.68,2.58a7.3,7.3,0,0,1-4.48-1.57c-.86-.87-1.57-3.23-1.58-5.25a32.88,32.88,0,0,0-1-7.25,15,15,0,0,0-3.46-5.89c-2.08-2-3.19-2.23-7.21-1.77-3.83.43-5.35,1.21-7.8,4-1.67,1.91-5.2,6-7.85,9.12s-6.17,6.33-7.8,7.17a8,8,0,0,1-4.86.95c-1-.34-2.18-1.94-2.55-3.64s-.12-5.92.54-9.44.92-7.55.57-9a6.22,6.22,0,0,0-3.06-3.65c-1.82-.83-3.19-.79-5.48.15-1.68.7-6.76,5.34-11.29,10.31a153.35,153.35,0,0,1-13.09,12.88c-2.66,2.1-5.88,3.83-7.14,3.83a3.2,3.2,0,0,1-2.88-1.49,47.12,47.12,0,0,1-1.24-6.75c-.37-2.89-1.11-5.82-1.66-6.51s-2.3-1.25-3.91-1.25a15.28,15.28,0,0,0-5.85,1.51,10.75,10.75,0,0,0-4,3.44,10.06,10.06,0,0,0-1,4,17.08,17.08,0,0,0,1.91,5.82,35.85,35.85,0,0,0,5.25,7.11,41.08,41.08,0,0,0,6.34,5.25,14.24,14.24,0,0,0,6.17,1.85,11.15,11.15,0,0,0,6.5-2.7c1.83-1.48,6.11-5.32,9.51-8.52s7.68-6.45,9.5-7.22c2.25-.94,3.71-1.07,4.52-.39.66.55,1.91,3.42,2.77,6.39,1,3.36,2.36,5.82,3.67,6.52a14.34,14.34,0,0,0,5.53,1.12,13.72,13.72,0,0,0,7.13-2.6c2-1.43,5.89-4.17,8.56-6.1,3.53-2.54,5.9-3.5,8.68-3.5,2.93,0,4.3.61,5.89,2.64a9.78,9.78,0,0,1,2.07,3.78c0,.64,1.3,2.71,2.89,4.62,2.69,3.23,3.29,3.46,8.75,3.46,5.09,0,6.58-.48,11.36-3.69,3-2,6.63-4,8-4.29s5.65.06,9.5.88c6.23,1.31,7.26,1.31,9.33,0a11.77,11.77,0,0,0,3.65-4.69,62,62,0,0,0,2.47-8.86c.64-3.13,2.07-6.84,3.18-8.25S659,151,660,151a4.85,4.85,0,0,1,3.18,1.65c.88,1.06,1.37,4.2,1.36,8.75,0,5.95-.47,7.95-2.9,12.34a94.27,94.27,0,0,1-7.5,11,51.22,51.22,0,0,1-10.87,9.63,101.2,101.2,0,0,1-13,6.63c-4.42,1.79-7.15,3.55-7.94,5.12-1,1.91-.95,2.81.11,4.41a6.63,6.63,0,0,0,4.65,2.34c2.3.22,5.47-.78,10.38-3.28A120.72,120.72,0,0,0,651.21,201a71.57,71.57,0,0,0,11.29-10.73A89.7,89.7,0,0,0,670.8,177c3.48-7.06,3.7-8.06,3.7-17,0-7.3-.44-10.38-1.89-13.29a13.5,13.5,0,0,0-4.69-5.25c-1.55-.81-5.21-1.45-8.12-1.43s-6.2.53-7.3,1.13M349.16,144a94.64,94.64,0,0,0-11.5,4.78c-2.1,1.22-3.27,2.75-3.48,4.56-.27,2.33.23,3,3.45,4.3s4.44,1.38,7.82.36a75.65,75.65,0,0,0,9.92-4.17c4.19-2.11,6.18-2.66,6.95-1.89s.49,1.87-1,3.83c-1.12,1.51-6.27,6-11.44,10s-10.46,8.5-11.75,10a36.62,36.62,0,0,0-4.23,6.73,20.58,20.58,0,0,0-1.91,6.73c0,1.61,1.13,4,2.76,5.85A9.83,9.83,0,0,0,342,198.7a31.26,31.26,0,0,0,10-1c3-.83,10-3.16,15.5-5.17s10.79-4.37,11.75-5.24a5.81,5.81,0,0,0,1.75-3.72,5.41,5.41,0,0,0-1.2-3.35A6.25,6.25,0,0,0,376,179c-1.44,0-4.83,1.42-7.55,3.15a92.67,92.67,0,0,1-8.95,5,22.59,22.59,0,0,1-7.63,1.85c-2,0-4.17-.64-4.88-1.49s-1-2.88-.67-5.09a19.26,19.26,0,0,1,3.23-7.06,38.65,38.65,0,0,1,6.73-6.42,22.54,22.54,0,0,1,7.93-3.57,16.19,16.19,0,0,0,6.32-2.56c1.88-1.47,2.47-2.88,2.47-5.9a21.19,21.19,0,0,0-5.22-13.63c-1.55-1.64-3.25-2.25-6.2-2.24-2.25,0-7.83,1.34-12.42,3m70.15,16.72c-1.2.23-3.82,2.23-5.81,4.43-2.92,3.23-3.39,4.29-2.44,5.44a4.14,4.14,0,0,0,2.81,1.4,7.42,7.42,0,0,0,3.64-1.75,38.64,38.64,0,0,0,4.25-4.61C423,164,424,162.12,424,161.36a1.15,1.15,0,0,0-1.25-1.22c-.69.07-2.23.32-3.44.56m-350,65.06A6.32,6.32,0,0,0,66,227.5c-.84,1-.85,1.92,0,3.44A4,4,0,0,0,69.1,233a10.06,10.06,0,0,0,4-1A3.81,3.81,0,0,0,75,229a3.37,3.37,0,0,0-1.75-2.77,7.76,7.76,0,0,0-3.93-.47m-31.27,1.68c-.88,1.06-.9,2-.09,3.49a11,11,0,0,0,4,3.56,19.75,19.75,0,0,0,7.72,1.45,31.07,31.07,0,0,0,8.2-1.25,10,10,0,0,0,4.46-2.88c.81-1.29.61-2.18-.81-3.75-1.65-1.82-3-2.06-12.08-2.06-7.67,0-10.52.36-11.42,1.44m252.45,6.69c-3.3,1.13-9.27,3.56-13.26,5.4s-7.51,4-7.83,4.83A5.42,5.42,0,0,0,270,248c1,1.86,1.78,2.11,5.12,1.67a18.4,18.4,0,0,0,7.15-2.91,78.12,78.12,0,0,1,9.78-5.57c3.62-1.75,7.37-4.06,8.35-5.14s1.48-2.44,1.12-3a3.71,3.71,0,0,0-2.85-1,40.64,40.64,0,0,0-8.19,2.1m-29.18,13.2a16.15,16.15,0,0,0-3.87,1.87c-.38.39-.4,1.85-.05,3.25.53,2.12,1.22,2.55,4.12,2.55a8,8,0,0,0,5.48-2,6.62,6.62,0,0,0,2-3.3,4.23,4.23,0,0,0-1.2-2.5,3.58,3.58,0,0,0-2.25-1.12,24.4,24.4,0,0,0-4.23,1.25"/></svg>