<svg xmlns="http://www.w3.org/2000/svg" width="1420" height="733" viewBox="0 0 1420 733" version="1.1"><path d="M 468 263.500 L 468 294 485 294 L 502 294 502 288.500 L 502 283 491.500 283 L 481 283 481 275.500 L 481 268 491 268 L 501 268 501 262.500 L 501 257 491 257 L 481 257 481 250.500 L 481 244 491.500 244 L 502 244 502 238.500 L 502 233 485 233 L 468 233 468 263.500 M 835.599 235.708 C 835.281 237.244, 833.216 250.297, 831.010 264.715 C 828.805 279.133, 827 291.620, 827 292.465 C 827 293.674, 828.270 294, 832.981 294 C 838.380 294, 839.007 293.781, 839.423 291.750 C 839.677 290.512, 840.609 283.200, 841.495 275.500 C 842.380 267.800, 843.369 259.970, 843.692 258.099 C 844.243 254.906, 844.421 255.181, 846.594 262.599 C 847.867 266.945, 850.657 275.675, 852.793 282 L 856.678 293.500 862.945 293.500 L 869.213 293.500 875.106 274.664 C 878.348 264.304, 881.037 255.079, 881.083 254.164 C 881.129 253.249, 882.465 261.050, 884.052 271.500 C 885.638 281.950, 886.951 291.288, 886.968 292.250 C 886.995 293.734, 887.988 294, 893.500 294 C 899.216 294, 900 293.771, 900 292.103 C 900 291.059, 898.191 278.572, 895.981 264.353 C 893.770 250.134, 891.706 237.244, 891.392 235.708 C 890.826 232.933, 890.779 232.918, 883.746 233.208 L 876.670 233.500 872.290 246.500 C 869.881 253.650, 866.909 262.913, 865.686 267.083 L 863.462 274.667 856.981 254.083 L 850.500 233.500 843.339 233.208 C 836.215 232.917, 836.174 232.931, 835.599 235.708 M 926.054 234.684 C 923.579 235.582, 919.541 238.364, 916.948 240.957 C 913.859 244.046, 911.651 247.451, 910.399 251.058 C 909.090 254.831, 908.511 259.260, 908.512 265.500 C 908.513 270.533, 909.115 276.211, 909.877 278.381 C 910.628 280.515, 912.844 284.035, 914.802 286.203 C 916.761 288.371, 920.122 291.042, 922.271 292.138 C 924.419 293.234, 929.175 294.382, 932.839 294.689 C 936.557 295, 942.069 294.713, 945.314 294.039 C 948.511 293.375, 951.374 292.189, 951.675 291.404 C 951.977 290.618, 951.930 288.020, 951.572 285.631 L 950.920 281.286 944.791 282.702 C 939.961 283.818, 937.662 283.879, 933.950 282.988 C 931.189 282.326, 928.210 280.748, 926.755 279.179 C 925.389 277.705, 923.761 274.970, 923.136 273.101 C 922.511 271.231, 922 266.829, 922 263.319 C 922 259.808, 922.620 255.488, 923.377 253.718 C 924.134 251.948, 926.193 249.150, 927.952 247.500 C 931.078 244.569, 931.375 244.502, 940.953 244.607 L 950.755 244.714 951.353 239.666 C 951.682 236.889, 951.701 234.366, 951.395 234.059 C 951.089 233.751, 946.262 233.403, 940.669 233.285 C 933.361 233.130, 929.249 233.524, 926.054 234.684 M 534.415 245.421 C 532.719 246.160, 530.356 248.003, 529.165 249.517 L 527 252.270 527 248.635 L 527 245 521 245 L 515 245 515 269.500 L 515 294 521.500 294 L 528 294 528.006 281.250 C 528.009 274.238, 528.474 266.833, 529.040 264.795 C 529.606 262.758, 531.239 260.171, 532.669 259.045 C 534.100 257.920, 536.507 257, 538.018 257 C 540.023 257, 540.930 256.391, 541.370 254.750 C 541.701 253.512, 541.979 250.588, 541.986 248.250 C 541.998 244.494, 541.739 244.005, 539.750 244.039 C 538.513 244.061, 536.112 244.683, 534.415 245.421 M 559.500 244.590 C 558.400 244.851, 555.615 245.551, 553.311 246.146 L 549.121 247.226 549.701 252.363 C 550.019 255.188, 550.424 257.669, 550.599 257.875 C 550.774 258.082, 552.745 257.519, 554.979 256.625 C 557.213 255.731, 561.506 255, 564.520 255 C 568.667 255, 570.487 255.487, 572 257 C 573.100 258.100, 574 260.024, 574 261.275 C 574 263.336, 573.284 263.663, 566.353 264.766 C 561.747 265.499, 556.938 267.019, 554.261 268.587 C 551.197 270.383, 549.230 272.483, 547.930 275.346 C 546.893 277.631, 546.034 280.760, 546.022 282.300 C 546.010 283.839, 546.697 286.447, 547.549 288.094 C 548.400 289.741, 550.538 291.967, 552.299 293.040 C 554.242 294.225, 557.269 294.985, 560 294.974 C 562.475 294.964, 566.366 294.109, 568.647 293.073 C 570.928 292.037, 573.277 290.360, 573.867 289.345 C 574.790 287.756, 574.943 287.951, 574.970 290.750 L 575 294 581 294 L 587 294 587 274.734 C 587 257.931, 586.765 255.030, 585.158 252.035 C 584.145 250.146, 581.619 247.720, 579.544 246.643 C 577.078 245.363, 573.298 244.586, 568.635 244.400 C 564.711 244.243, 560.600 244.329, 559.500 244.590 M 609.127 245.498 C 606.722 246.248, 603.470 248.092, 601.900 249.596 C 600.330 251.100, 598.535 253.879, 597.910 255.773 C 597.285 257.667, 597.033 260.813, 597.349 262.764 C 597.666 264.716, 599.116 267.556, 600.572 269.075 C 602.028 270.595, 605.887 272.836, 609.147 274.055 C 612.408 275.274, 615.507 277.078, 616.034 278.064 C 616.561 279.049, 616.737 280.522, 616.425 281.336 C 616.112 282.150, 614.555 283.356, 612.966 284.014 C 610.893 284.873, 608.511 284.942, 604.550 284.260 C 601.511 283.736, 598.795 283.539, 598.513 283.821 C 598.231 284.103, 598 286.460, 598 289.060 C 598 292.447, 598.448 293.958, 599.582 294.393 C 600.452 294.727, 604.210 295, 607.933 295 C 611.656 295, 616.231 294.481, 618.101 293.847 C 619.970 293.213, 622.744 291.827, 624.265 290.768 C 625.786 289.709, 627.736 287.478, 628.598 285.810 C 629.461 284.142, 630.167 280.780, 630.167 278.340 C 630.167 275.900, 629.425 272.772, 628.519 271.389 C 627.610 270.002, 623.426 267.222, 619.186 265.187 C 612.674 262.063, 611.500 261.123, 611.500 259.030 C 611.500 257.395, 612.346 256.135, 614 255.306 C 615.608 254.499, 618.372 254.271, 621.750 254.664 L 627 255.275 627 250.263 C 627 245.448, 626.876 245.225, 623.875 244.625 C 622.156 244.281, 619.119 244.030, 617.125 244.067 C 615.131 244.104, 611.532 244.748, 609.127 245.498 M 661 245.594 C 659.075 246.428, 656.353 248.208, 654.951 249.549 L 652.403 251.988 652.811 248.494 L 653.219 245 646.609 245 L 640 245 640 269.500 L 640 294 646.374 294 L 652.748 294 653.195 279.750 C 653.520 269.421, 654.077 264.674, 655.219 262.498 C 656.086 260.846, 657.629 258.762, 658.648 257.866 C 659.666 256.970, 661.450 255.948, 662.611 255.595 C 663.949 255.188, 665.484 255.602, 666.805 256.727 C 668.749 258.380, 668.910 259.697, 669.195 276.246 L 669.500 293.992 675.639 293.996 L 681.778 294 682.185 279.750 C 682.486 269.221, 683.010 264.716, 684.194 262.498 C 685.075 260.846, 686.629 258.762, 687.648 257.866 C 688.666 256.970, 690.450 255.948, 691.611 255.595 C 692.958 255.186, 694.551 255.626, 696.017 256.813 C 698.257 258.626, 698.313 259.106, 698.290 276.336 L 698.266 294 705.099 294 L 711.932 294 711.576 274.163 C 711.292 258.291, 710.895 253.697, 709.589 251.173 C 708.692 249.438, 706.860 247.299, 705.517 246.419 C 704.175 245.540, 701.312 244.583, 699.155 244.294 C 696.998 244.005, 693.567 244.318, 691.531 244.990 C 689.495 245.662, 686.217 247.627, 684.248 249.356 C 681.553 251.721, 680.549 252.146, 680.190 251.069 C 679.927 250.282, 678.646 248.650, 677.342 247.441 C 676.038 246.233, 673.572 244.964, 671.861 244.622 C 670.150 244.280, 667.794 244.018, 666.625 244.039 C 665.456 244.061, 662.925 244.760, 661 245.594 M 789.037 245.114 C 787.132 245.694, 784.312 247.066, 782.771 248.163 C 781.231 249.260, 779.232 251.584, 778.330 253.328 C 777.429 255.072, 776.720 258.429, 776.756 260.788 C 776.791 263.147, 777.560 266.205, 778.463 267.584 C 779.366 268.962, 783.569 271.757, 787.803 273.795 C 794.342 276.943, 795.500 277.874, 795.500 279.987 C 795.500 281.740, 794.651 282.880, 792.620 283.853 C 790.420 284.908, 788.373 285.014, 783.954 284.302 L 778.168 283.370 777.795 288.435 C 777.587 291.247, 777.883 293.827, 778.461 294.235 C 779.032 294.639, 782.650 294.974, 786.500 294.979 C 790.350 294.984, 795.290 294.492, 797.477 293.885 C 799.665 293.277, 803.115 291.120, 805.145 289.091 C 807.450 286.785, 809.094 284.016, 809.527 281.707 C 809.908 279.675, 809.946 276.920, 809.610 275.584 C 809.275 274.247, 807.902 271.848, 806.558 270.252 C 805.215 268.656, 801.182 266.102, 797.595 264.578 C 793.585 262.874, 790.835 261.055, 790.454 259.855 C 790.113 258.782, 790.340 257.295, 790.958 256.550 C 791.576 255.805, 793.138 254.931, 794.429 254.607 C 795.719 254.283, 798.800 254.397, 801.275 254.859 L 805.774 255.700 806.278 250.600 C 806.554 247.795, 806.621 245.329, 806.426 245.119 C 806.231 244.910, 803.018 244.586, 799.286 244.399 C 795.554 244.213, 790.941 244.535, 789.037 245.114 M 724.065 264.250 C 724.161 275.423, 724.707 284.954, 725.365 286.965 C 726.031 288.999, 727.904 291.375, 729.898 292.715 C 732.394 294.394, 734.730 295, 738.698 295 C 741.695 295, 745.524 294.279, 747.300 293.379 C 749.060 292.488, 751.288 291.068, 752.250 290.224 C 753.863 288.811, 754 288.899, 754 291.345 C 754 293.946, 754.132 294, 760.500 294 L 767 294 767 269.454 L 767 244.909 760.250 245.204 L 753.500 245.500 753 261.100 C 752.631 272.607, 752.118 277.198, 751.043 278.600 C 750.242 279.645, 748.667 281.277, 747.543 282.228 C 746.419 283.178, 744.053 283.966, 742.285 283.978 C 740.115 283.993, 738.734 283.372, 738.035 282.066 C 737.434 280.943, 737 272.762, 737 262.566 L 737 245 730.450 245 L 723.899 245 724.065 264.250 M 564.686 274.017 C 563.138 274.481, 561.226 275.398, 560.436 276.053 C 559.646 276.709, 559 278.549, 559 280.144 C 559 282.234, 559.670 283.348, 561.402 284.137 C 562.998 284.864, 564.760 284.915, 566.652 284.289 C 568.218 283.770, 570.513 281.851, 571.750 280.025 C 572.987 278.199, 574 275.871, 574 274.852 C 574 273.412, 573.278 273.019, 570.750 273.086 C 568.962 273.133, 566.234 273.552, 564.686 274.017 M 504.364 311.493 C 504.018 312.396, 504.214 313.614, 504.800 314.200 C 505.386 314.786, 506.604 314.982, 507.507 314.636 C 508.409 314.289, 508.997 313.222, 508.812 312.265 C 508.628 311.307, 507.693 310.372, 506.735 310.188 C 505.778 310.003, 504.711 310.591, 504.364 311.493 M 566.623 311.541 C 566.277 312.443, 566.247 313.590, 566.556 314.090 C 566.865 314.591, 568.023 315, 569.129 315 C 570.639 315, 571.060 314.443, 570.820 312.760 C 570.644 311.528, 569.769 310.381, 568.876 310.211 C 567.983 310.041, 566.969 310.640, 566.623 311.541 M 659 313 C 659 315.521, 658.607 316, 656.539 316 C 655.185 316, 653.160 316.985, 652.039 318.189 C 650.731 319.593, 650 321.735, 650 324.166 C 650 326.993, 650.571 328.326, 652.250 329.421 C 653.777 330.416, 655.865 330.703, 658.750 330.312 L 663 329.737 663 319.868 C 663 310.667, 662.865 310, 661 310 C 659.444 310, 659 310.667, 659 313 M 667.364 311.493 C 667.018 312.396, 667.214 313.614, 667.800 314.200 C 668.386 314.786, 669.604 314.982, 670.507 314.636 C 671.409 314.289, 671.997 313.222, 671.812 312.265 C 671.628 311.307, 670.693 310.372, 669.735 310.188 C 668.778 310.003, 667.711 310.591, 667.364 311.493 M 704 320 L 704 330 706.500 330 L 709 330 709 320 L 709 310 706.500 310 L 704 310 704 320 M 906 313 C 906 315.509, 905.603 316, 903.573 316 C 902.141 316, 900.295 317.081, 899.073 318.635 C 897.933 320.084, 897 322.559, 897 324.135 C 897 325.711, 897.942 327.942, 899.092 329.092 C 900.478 330.478, 901.914 330.989, 903.342 330.606 C 904.529 330.288, 906.513 330.021, 907.750 330.014 C 909.932 330, 910 329.700, 910 320 C 910 310.667, 909.867 310, 908 310 C 906.444 310, 906 310.667, 906 313 M 468 318.929 C 468 324.657, 468.418 327.275, 469.506 328.363 C 470.334 329.191, 471.916 330.156, 473.022 330.507 C 474.127 330.858, 476.591 330.630, 478.496 330.001 C 481.341 329.063, 482.153 328.144, 483.033 324.876 C 483.623 322.687, 483.969 318.781, 483.803 316.198 C 483.545 312.198, 483.166 311.453, 481.250 311.180 C 479.086 310.873, 479 311.151, 479 318.462 C 479 324.576, 478.680 326.186, 477.364 326.691 C 476.464 327.036, 475.002 326.862, 474.114 326.304 C 472.926 325.558, 472.422 323.404, 472.206 318.145 C 471.946 311.820, 471.688 311, 469.956 311 C 468.179 311, 468 311.726, 468 318.929 M 577.250 311.662 C 576.563 311.940, 576 312.867, 576 313.723 C 576 314.579, 575.212 315.892, 574.250 316.640 C 572.583 317.935, 572.583 318.065, 574.250 319.360 C 575.411 320.263, 576 322.101, 576 324.825 C 576 327.958, 576.492 329.193, 578.078 330.042 C 579.221 330.654, 580.796 330.908, 581.578 330.608 C 582.360 330.308, 583 329.374, 583 328.531 C 583 327.689, 582.325 327, 581.500 327 C 580.452 327, 580 325.944, 580 323.500 C 580 321.056, 580.452 320, 581.500 320 C 582.333 320, 583 319.111, 583 318 C 583 316.889, 582.333 316, 581.500 316 C 580.567 316, 580 315.056, 580 313.500 C 580 312.125, 579.663 311.036, 579.250 311.079 C 578.837 311.122, 577.938 311.385, 577.250 311.662 M 611.917 312.750 C 611.871 313.712, 611.711 315.400, 611.561 316.500 C 611.412 317.600, 610.947 321.087, 610.529 324.250 C 609.812 329.677, 609.888 330, 611.885 330 C 613.756 330, 614 329.424, 614 325 C 614 322.250, 614.405 320, 614.900 320 C 615.395 320, 616.340 322.250, 617 325 C 618.024 329.268, 618.549 330, 620.585 330 C 622.584 330, 623.158 329.258, 624.121 325.435 C 624.753 322.924, 625.627 321.237, 626.064 321.685 C 626.500 322.133, 627.002 324.075, 627.179 326 C 627.436 328.800, 627.971 329.567, 629.855 329.833 C 632.146 330.158, 632.192 330.022, 631.526 324.833 C 631.149 321.900, 630.401 317.784, 629.865 315.688 C 629.079 312.616, 628.482 311.936, 626.790 312.188 C 625.362 312.400, 624.252 313.772, 623.319 316.476 C 622.565 318.663, 621.549 320.851, 621.061 321.339 C 620.544 321.856, 619.434 319.880, 618.404 316.613 C 616.925 311.919, 616.255 311, 614.317 311 C 612.809 311, 611.971 311.611, 611.917 312.750 M 723.923 313.923 C 721.796 316.050, 721 317.808, 721 320.376 C 721 322.317, 721.512 325.030, 722.138 326.403 C 722.764 327.777, 724.586 329.357, 726.187 329.915 C 727.788 330.474, 730.426 330.665, 732.049 330.340 C 734.037 329.943, 735 329.148, 735 327.905 C 735 326.456, 734.285 326.088, 731.657 326.187 C 729.819 326.256, 727.794 325.990, 727.157 325.597 C 726.521 325.204, 726 323.164, 726 321.063 C 726 318.896, 726.646 316.709, 727.494 316.005 C 728.316 315.323, 730.094 314.976, 731.444 315.234 C 733.003 315.532, 734.102 315.177, 734.453 314.262 C 734.757 313.468, 734.753 312.410, 734.444 311.910 C 734.135 311.409, 732.299 311, 730.364 311 C 727.809 311, 726.046 311.800, 723.923 313.923 M 771.667 311.667 C 771.300 312.033, 771 313.158, 771 314.167 C 771 315.175, 770.325 316, 769.500 316 C 768.675 316, 768 316.689, 768 317.531 C 768 318.374, 768.675 319.322, 769.500 319.638 C 770.549 320.041, 771 321.678, 771 325.088 C 771 329.423, 771.270 330.030, 773.443 330.575 C 774.787 330.912, 776.362 330.894, 776.943 330.535 C 777.524 330.176, 778 329.234, 778 328.441 C 778 327.648, 777.325 327, 776.500 327 C 775.452 327, 775 325.944, 775 323.500 C 775 321.056, 775.452 320, 776.500 320 C 777.333 320, 778 319.111, 778 318 C 778 316.889, 777.333 316, 776.500 316 C 775.567 316, 775 315.056, 775 313.500 C 775 312.083, 774.422 311, 773.667 311 C 772.933 311, 772.033 311.300, 771.667 311.667 M 816.667 311.667 C 816.300 312.033, 816 316.308, 816 321.167 C 816 329.922, 816.022 330, 818.500 330 C 820.559 330, 821.001 329.515, 821.005 327.250 L 821.010 324.500 823.289 327.348 C 824.840 329.286, 826.283 330.085, 827.806 329.848 L 830.045 329.500 827.595 325.910 C 825.187 322.382, 825.178 322.292, 827.073 320.670 C 828.133 319.762, 829 317.916, 829 316.566 C 829 315.165, 828.047 313.446, 826.777 312.557 C 825.555 311.701, 822.930 311, 820.944 311 C 818.958 311, 817.033 311.300, 816.667 311.667 M 850.200 312.200 C 849.540 312.860, 849 313.985, 849 314.700 C 849 315.415, 848.550 316, 848 316 C 847.450 316, 847 316.689, 847 317.531 C 847 318.374, 847.675 319.322, 848.500 319.638 C 849.549 320.041, 850 321.678, 850 325.088 C 850 329.423, 850.270 330.030, 852.443 330.575 C 853.787 330.912, 855.362 330.894, 855.943 330.535 C 856.524 330.176, 857 329.234, 857 328.441 C 857 327.648, 856.325 327, 855.500 327 C 854.452 327, 854 325.944, 854 323.500 C 854 321.056, 854.452 320, 855.500 320 C 856.333 320, 857 319.111, 857 318 C 857 316.889, 856.333 316, 855.500 316 C 854.567 316, 854 315.056, 854 313.500 C 854 312.115, 853.420 311, 852.700 311 C 851.985 311, 850.860 311.540, 850.200 312.200 M 862.250 311.662 C 861.563 311.940, 861 313.029, 861 314.083 C 861 315.137, 860.550 316, 860 316 C 859.450 316, 859 316.900, 859 318 C 859 319.100, 859.450 320, 860 320 C 860.550 320, 861 322.009, 861 324.465 C 861 327.934, 861.455 329.173, 863.038 330.020 C 864.159 330.620, 865.959 330.831, 867.038 330.488 C 868.117 330.145, 869 329.273, 869 328.549 C 869 327.825, 868.100 326.998, 867 326.710 C 865.565 326.335, 865 325.346, 865 323.210 C 865 321.074, 865.565 320.086, 867 319.710 C 868.100 319.423, 869 318.470, 869 317.594 C 869 316.667, 868.163 316, 867 316 C 865.533 316, 865 315.333, 865 313.500 C 865 312.125, 864.663 311.036, 864.250 311.079 C 863.837 311.122, 862.938 311.385, 862.250 311.662 M 821 317 C 821 318.506, 821.522 319.046, 822.750 318.810 C 823.712 318.624, 824.500 317.810, 824.500 317 C 824.500 316.190, 823.712 315.376, 822.750 315.190 C 821.522 314.954, 821 315.494, 821 317 M 488 323.053 C 488 329.268, 488.205 330, 489.945 330 C 491.556 330, 491.943 329.184, 492.195 325.259 C 492.425 321.687, 492.931 320.436, 494.250 320.186 C 495.730 319.905, 496 320.635, 496 324.927 C 496 329.371, 496.254 330, 498.046 330 C 499.934 330, 500.069 329.480, 499.796 323.250 L 499.500 316.500 493.750 316.303 L 488 316.107 488 323.053 M 505 323 C 505 329.333, 505.190 330, 507 330 C 508.810 330, 509 329.333, 509 323 C 509 316.667, 508.810 316, 507 316 C 505.190 316, 505 316.667, 505 323 M 512 317.147 C 512 317.778, 512.960 320.928, 514.134 324.147 C 515.916 329.034, 516.659 330, 518.634 330 C 519.935 330, 521 329.829, 521 329.619 C 521 329.410, 522.121 326.260, 523.491 322.619 L 525.983 316 523.532 316 C 521.524 316, 520.856 316.750, 519.838 320.145 L 518.597 324.290 517.215 320.145 C 516.236 317.207, 515.275 316, 513.917 316 C 512.862 316, 512 316.516, 512 317.147 M 528.557 318.223 C 527.701 319.445, 527 321.724, 527 323.288 C 527 324.852, 527.438 326.950, 527.974 327.951 C 528.509 328.951, 530.084 330.055, 531.474 330.404 C 532.863 330.753, 535.125 330.756, 536.500 330.411 C 537.896 330.060, 539 329.058, 539.001 328.142 C 539.001 326.919, 538.069 326.500, 535.344 326.500 C 533.312 326.500, 531.497 325.944, 531.260 325.250 C 530.959 324.367, 532.211 324, 535.525 324 C 540.142 324, 540.206 323.956, 539.528 321.256 C 539.149 319.746, 538.370 317.946, 537.797 317.256 C 537.224 316.565, 535.261 316, 533.434 316 C 531.136 316, 529.634 316.685, 528.557 318.223 M 543 323.063 C 543 329.333, 543.192 330, 545 330 C 546.610 330, 547 329.333, 547 326.582 C 547 324.702, 547.273 322.452, 547.607 321.582 C 547.941 320.712, 548.841 320, 549.607 320 C 550.373 320, 551 319.153, 551 318.118 C 551 316.598, 550.230 316.225, 547 316.181 L 543 316.125 543 323.063 M 554.571 317.571 C 553.707 318.436, 553 319.768, 553 320.532 C 553 321.296, 553.563 322.404, 554.250 322.995 C 554.938 323.585, 556.400 324.714, 557.500 325.502 C 559.437 326.891, 559.417 326.937, 556.857 326.968 C 555.403 326.986, 553.964 327.652, 553.658 328.449 C 553.323 329.323, 553.868 330.141, 555.035 330.511 C 556.098 330.848, 558.213 330.531, 559.734 329.805 C 561.584 328.922, 562.605 327.577, 562.816 325.743 C 563.067 323.572, 562.598 322.798, 560.566 322.025 C 559.155 321.489, 558 320.588, 558 320.025 C 558 319.461, 558.900 319, 560 319 C 561.111 319, 562 318.333, 562 317.500 C 562 316.508, 561.008 316, 559.071 316 C 557.461 316, 555.436 316.707, 554.571 317.571 M 567 323 C 567 329.333, 567.190 330, 569 330 C 570.810 330, 571 329.333, 571 323 C 571 316.667, 570.810 316, 569 316 C 567.190 316, 567 316.667, 567 323 M 585 316.381 C 585 316.590, 586.116 319.727, 587.480 323.351 C 588.844 326.975, 589.696 330.629, 589.373 331.470 C 589.050 332.312, 587.934 333, 586.893 333 C 585.667 333, 585 333.704, 585 335 C 585 336.148, 585.667 337, 586.566 337 C 587.427 337, 588.956 336.559, 589.965 336.019 C 590.973 335.479, 593.143 331.767, 594.787 327.769 C 596.431 323.771, 598.093 319.451, 598.481 318.168 C 599.090 316.157, 598.876 315.882, 596.927 316.168 C 595.371 316.397, 594.302 317.589, 593.492 320 L 592.316 323.500 590.957 319.750 C 589.924 316.898, 589.048 316, 587.299 316 C 586.035 316, 585 316.171, 585 316.381 M 636.592 317.898 C 635.390 319.227, 634.969 321.097, 635.188 324.140 C 635.448 327.759, 635.965 328.707, 638.286 329.814 C 639.950 330.608, 642.287 330.876, 644.091 330.480 C 646.135 330.031, 647.011 329.297, 646.802 328.210 C 646.592 327.122, 645.392 326.586, 643.085 326.552 C 641.210 326.523, 639.487 325.938, 639.255 325.250 C 638.963 324.385, 640.092 324, 642.917 324 C 646.776 324, 647 323.838, 647 321.035 C 647 319.127, 646.310 317.701, 645.066 317.035 C 644.002 316.466, 642.047 316, 640.721 316 C 639.395 316, 637.537 316.854, 636.592 317.898 M 667 323 C 667 329.800, 667.071 330, 669.500 330 C 671.929 330, 672 329.800, 672 323 C 672 316.200, 671.929 316, 669.500 316 C 667.071 316, 667 316.200, 667 323 M 677 318 C 675.870 319.130, 675 321.333, 675 323.066 C 675 324.752, 675.438 326.950, 675.974 327.951 C 676.509 328.951, 678.048 330.046, 679.394 330.384 C 680.740 330.722, 682.552 330.725, 683.421 330.392 C 684.289 330.059, 685 328.976, 685 327.987 C 685 326.739, 684.442 326.333, 683.180 326.663 C 682.179 326.925, 680.792 326.454, 680.098 325.618 C 679.399 324.775, 679.125 323.181, 679.485 322.048 C 679.905 320.723, 680.994 320, 682.567 320 C 684.333 320, 685 319.452, 685 318 C 685 316.444, 684.333 316, 682 316 C 680.333 316, 678.111 316.889, 677 318 M 689 318.079 C 689 319.855, 689.425 320.066, 691.905 319.521 C 693.535 319.163, 695.089 319.334, 695.446 319.912 C 695.798 320.483, 694.839 321.239, 693.291 321.609 C 691.756 321.976, 689.938 322.719, 689.250 323.260 C 688.563 323.802, 688 325.299, 688 326.587 C 688 327.876, 688.788 329.326, 689.750 329.810 C 690.712 330.293, 693.413 330.487, 695.750 330.240 L 700 329.790 700 324.095 C 700 320.963, 699.460 317.860, 698.800 317.200 C 698.140 316.540, 695.665 316, 693.300 316 C 689.612 316, 689 316.296, 689 318.079 M 739 318 C 737.900 319.100, 737 321.155, 737 322.566 C 737 323.977, 737.460 325.992, 738.023 327.043 C 738.586 328.094, 739.962 329.444, 741.082 330.044 C 742.201 330.643, 744.441 330.842, 746.059 330.487 C 747.890 330.085, 749 329.207, 749 328.161 C 749 326.940, 748.137 326.483, 745.845 326.490 C 744.110 326.496, 742.498 325.938, 742.262 325.250 C 741.965 324.384, 743.088 324, 745.917 324 C 749.163 324, 750 323.636, 750 322.223 C 750 321.245, 749.299 319.445, 748.443 318.223 C 747.434 316.782, 745.851 316, 743.943 316 C 742.324 316, 740.100 316.900, 739 318 M 753 323.096 C 753 329.752, 753.088 330, 755.445 330 C 757.653 330, 757.920 329.539, 758.195 325.250 C 758.415 321.830, 758.920 320.500, 760 320.500 C 761.080 320.500, 761.585 321.830, 761.805 325.250 C 762.057 329.184, 762.444 330, 764.055 330 C 765.761 330, 766 329.278, 766 324.122 C 766 320.554, 765.495 317.826, 764.715 317.178 C 764.008 316.591, 761.083 316.129, 758.215 316.152 L 753 316.192 753 323.096 M 782.592 317.898 C 781.390 319.227, 780.969 321.097, 781.188 324.140 C 781.448 327.759, 781.965 328.707, 784.286 329.814 C 785.950 330.608, 788.287 330.876, 790.091 330.480 C 792.135 330.031, 793.011 329.297, 792.802 328.210 C 792.592 327.122, 791.392 326.586, 789.085 326.552 C 787.210 326.523, 785.487 325.938, 785.255 325.250 C 784.963 324.385, 786.092 324, 788.917 324 C 792.776 324, 793 323.838, 793 321.035 C 793 319.127, 792.310 317.701, 791.066 317.035 C 790.002 316.466, 788.047 316, 786.721 316 C 785.395 316, 783.537 316.854, 782.592 317.898 M 797 323.063 C 797 329.333, 797.192 330, 799 330 C 800.610 330, 801 329.333, 801 326.582 C 801 324.702, 801.273 322.452, 801.607 321.582 C 801.941 320.712, 802.841 320, 803.607 320 C 804.373 320, 805 319.153, 805 318.118 C 805 316.598, 804.230 316.225, 801 316.181 L 797 316.125 797 323.063 M 833.945 318.055 C 832.391 319.609, 831.965 321.131, 832.195 324.297 C 832.447 327.762, 832.988 328.718, 835.325 329.833 C 837.570 330.904, 838.741 330.936, 841.031 329.987 C 842.879 329.222, 844.298 327.626, 844.987 325.541 C 845.691 323.405, 845.733 321.427, 845.107 319.780 C 844.582 318.401, 843.407 316.986, 842.495 316.636 C 841.583 316.286, 839.748 316, 838.418 316 C 837.088 316, 835.075 316.925, 833.945 318.055 M 872.943 318.057 C 871.465 319.535, 870.972 321.126, 871.193 323.708 C 871.406 326.202, 872.304 327.899, 874.130 329.256 C 876.079 330.705, 877.568 331.034, 879.880 330.526 C 881.898 330.083, 883 329.234, 883 328.121 C 883 326.759, 882.303 326.483, 879.643 326.794 C 877.237 327.074, 876.112 326.734, 875.674 325.593 C 875.171 324.282, 875.854 324, 879.531 324 C 883.147 324, 884 323.661, 884 322.223 C 884 321.245, 883.299 319.445, 882.443 318.223 C 881.434 316.782, 879.851 316, 877.943 316 C 876.306 316, 874.087 316.913, 872.943 318.057 M 887 323.063 C 887 329.796, 887.074 330, 889.500 330 C 891.799 330, 892 329.635, 892 325.469 C 892 322.363, 892.472 320.756, 893.500 320.362 C 894.325 320.045, 895 318.987, 895 318.011 C 895 316.616, 894.144 316.224, 891 316.181 L 887 316.125 887 323.063 M 915 318.079 C 915 319.870, 915.417 320.067, 918 319.500 C 919.650 319.138, 921 319.246, 921 319.740 C 921 320.235, 919.538 321.283, 917.750 322.070 C 915.426 323.093, 914.412 324.264, 914.190 326.183 C 913.971 328.080, 914.489 329.192, 915.961 329.979 C 917.105 330.591, 918.582 330.759, 919.242 330.350 C 919.902 329.942, 921.693 329.704, 923.221 329.820 C 925.923 330.026, 926 329.891, 926 324.950 C 926 322.155, 925.534 318.998, 924.965 317.934 C 924.179 316.465, 922.856 316, 919.465 316 C 915.610 316, 915 316.284, 915 318.079 M 930 323.114 C 930 329.333, 930.194 330, 932 330 C 933.512 330, 934.003 329.329, 934.014 327.250 C 934.021 325.738, 934.299 323.488, 934.630 322.250 C 934.962 321.012, 935.856 320, 936.617 320 C 937.610 320, 938 321.410, 938 325 C 938 329.333, 938.267 330, 940 330 C 941.512 330, 942.003 329.329, 942.014 327.250 C 942.021 325.738, 942.299 323.488, 942.630 322.250 C 942.962 321.012, 943.856 320, 944.617 320 C 945.610 320, 946 321.410, 946 325 C 946 329.667, 946.167 330, 948.500 330 C 950.838 330, 951 329.671, 951 324.934 C 951 322.148, 950.557 319.041, 950.015 318.029 C 949.164 316.438, 947.743 316.191, 939.515 316.208 L 930 316.227 930 323.114 M 531.500 320 C 531.160 320.550, 531.809 321, 532.941 321 C 534.073 321, 535 320.550, 535 320 C 535 319.450, 534.352 319, 533.559 319 C 532.766 319, 531.840 319.450, 531.500 320 M 639.500 320 C 639.160 320.550, 639.835 321, 641 321 C 642.165 321, 642.840 320.550, 642.500 320 C 642.160 319.450, 641.485 319, 641 319 C 640.515 319, 639.840 319.450, 639.500 320 M 654.980 321.038 C 654.380 322.159, 654.169 323.959, 654.512 325.038 C 654.855 326.117, 655.564 327, 656.089 327 C 656.614 327, 657.542 325.904, 658.153 324.564 C 658.763 323.224, 658.993 321.424, 658.663 320.564 C 658.333 319.704, 657.614 319, 657.067 319 C 656.519 319, 655.580 319.917, 654.980 321.038 M 742.500 320 C 742.160 320.550, 742.584 321, 743.441 321 C 744.298 321, 745 320.550, 745 320 C 745 319.450, 744.577 319, 744.059 319 C 743.541 319, 742.840 319.450, 742.500 320 M 785.500 320 C 785.160 320.550, 785.835 321, 787 321 C 788.165 321, 788.840 320.550, 788.500 320 C 788.160 319.450, 787.485 319, 787 319 C 786.515 319, 785.840 319.450, 785.500 320 M 876 320 C 876 320.550, 876.675 321, 877.500 321 C 878.325 321, 879 320.550, 879 320 C 879 319.450, 878.325 319, 877.500 319 C 876.675 319, 876 319.450, 876 320 M 903.250 319.662 C 902.563 319.940, 902 321.704, 902 323.583 C 902 325.837, 902.474 327, 903.393 327 C 904.159 327, 905.059 326.288, 905.393 325.418 C 905.727 324.548, 906 322.748, 906 321.418 C 906 320.088, 905.663 319.036, 905.250 319.079 C 904.837 319.122, 903.938 319.385, 903.250 319.662 M 836.384 321.442 C 836.080 322.234, 835.988 323.697, 836.179 324.692 C 836.376 325.712, 837.393 326.500, 838.514 326.500 C 840.024 326.500, 840.575 325.721, 840.813 323.250 C 841.077 320.518, 840.793 320, 839.032 320 C 837.880 320, 836.688 320.649, 836.384 321.442 M 693.750 324.689 C 692.788 324.941, 692 325.564, 692 326.073 C 692 326.583, 692.627 327, 693.393 327 C 694.159 327, 695.045 326.325, 695.362 325.500 C 695.678 324.675, 695.839 324.052, 695.719 324.116 C 695.598 324.180, 694.712 324.438, 693.750 324.689 M 919 325 C 918.207 325.490, 917.890 326.223, 918.296 326.629 C 918.701 327.035, 919.558 326.842, 920.200 326.200 C 920.842 325.558, 921.159 324.825, 920.904 324.571 C 920.650 324.317, 919.793 324.510, 919 325" stroke="none" fill="#0c2474" fill-rule="evenodd"/><path d="M 711 274.218 L 711 279.527 715.750 280.723 C 718.362 281.381, 721.588 282.235, 722.919 282.620 C 724.942 283.207, 725.228 283.037, 724.669 281.579 C 724.301 280.621, 724 277.884, 724 275.498 C 724 271.555, 723.749 271.112, 721.250 270.647 C 719.737 270.365, 716.813 269.859, 714.750 269.522 L 711 268.909 711 274.218 M 689.250 273.184 L 682 275.213 682 281.107 C 682 284.348, 682.112 286.988, 682.250 286.973 C 682.388 286.958, 686.100 285.664, 690.500 284.097 L 698.500 281.247 698.802 276.124 C 699.022 272.398, 698.749 271.021, 697.802 271.077 C 697.086 271.120, 693.237 272.068, 689.250 273.184 M 737 277.566 C 737 278.977, 737.466 281.002, 738.035 282.066 C 738.748 283.397, 740.132 284, 742.476 284 C 744.349 284, 746.135 283.591, 746.444 283.090 C 746.753 282.590, 746.759 281.536, 746.457 280.748 C 746.155 279.961, 744.179 278.345, 742.068 277.158 C 739.956 275.971, 737.951 275, 737.614 275 C 737.276 275, 737 276.155, 737 277.566 M 660.750 285.221 C 654.539 288.569, 653 289.855, 653 291.699 C 653 293.715, 652.507 294, 649.018 294 C 646.105 294, 643.217 295.113, 638.268 298.140 C 634.545 300.417, 628.216 304.496, 624.202 307.203 C 617.941 311.426, 617 312.436, 617.576 314.313 C 617.945 315.516, 618.815 317.850, 619.508 319.500 L 620.769 322.500 622.237 319 C 623.044 317.075, 623.982 314.712, 624.321 313.750 C 624.660 312.788, 625.689 312, 626.608 312 C 627.528 312, 628.796 312.706, 629.426 313.569 C 630.427 314.937, 631.783 314.379, 640.037 309.202 C 645.242 305.938, 654 300.837, 659.500 297.866 L 669.500 292.464 669.800 286.732 C 669.965 283.579, 669.740 281.010, 669.300 281.022 C 668.860 281.035, 665.013 282.924, 660.750 285.221 M 603.126 322.580 C 598.584 326.171, 593.968 330.635, 592.868 332.499 C 591.664 334.540, 589.579 336.314, 587.629 336.958 C 585.581 337.633, 579.256 343.213, 570.444 352.118 C 562.775 359.869, 555.430 366.623, 554.121 367.129 C 552.813 367.635, 546.513 369.174, 540.121 370.549 C 533.730 371.925, 522.650 374.587, 515.500 376.466 C 508.350 378.346, 495.975 381.980, 488 384.542 C 480.025 387.105, 465.465 392.357, 455.644 396.214 C 445.823 400.071, 430.748 406.757, 422.144 411.073 C 413.540 415.389, 402.593 421.525, 397.817 424.710 C 393.041 427.894, 386.586 432.700, 383.472 435.389 C 380.358 438.079, 376.503 442.084, 374.905 444.289 C 373.105 446.775, 372 449.547, 372 451.579 C 372 453.382, 372.663 455.520, 373.473 456.331 C 374.284 457.141, 376.421 458.714, 378.223 459.827 C 380.026 460.939, 384.954 463.009, 389.176 464.425 C 393.398 465.841, 398.596 467, 400.726 467 C 402.857 467, 405.140 466.460, 405.800 465.800 C 406.460 465.140, 407 463.851, 407 462.935 C 407 462.019, 406.117 460.147, 405.038 458.775 C 403.936 457.375, 401.065 455.718, 398.491 454.997 C 395.969 454.291, 392.802 452.845, 391.453 451.784 C 390.104 450.723, 389 449.004, 389 447.964 C 389 446.867, 391.624 443.884, 395.250 440.860 C 398.688 437.994, 405.100 433.305, 409.500 430.442 C 413.900 427.578, 422.900 422.546, 429.500 419.259 C 436.100 415.972, 447.329 410.922, 454.454 408.035 C 461.579 405.149, 473.279 400.644, 480.454 398.024 C 487.629 395.404, 499.125 391.633, 506 389.645 C 512.875 387.656, 521.875 385.328, 526 384.471 C 530.125 383.614, 536.087 382.557, 539.250 382.122 C 542.594 381.662, 545 381.709, 545 382.235 C 545 382.733, 543.627 385.136, 541.948 387.576 C 540.269 390.016, 537.340 395.287, 535.439 399.291 C 533.538 403.295, 531.256 409.930, 530.368 414.035 C 529.381 418.599, 528.758 426.163, 528.765 433.500 C 528.774 443.293, 529.224 447.001, 531.212 453.662 C 532.552 458.150, 535.190 464.398, 537.074 467.544 C 538.958 470.691, 543.096 475.879, 546.269 479.072 C 549.442 482.266, 554.725 486.511, 558.009 488.505 C 561.292 490.500, 567.696 493.520, 572.239 495.217 C 579.333 497.866, 582.220 498.368, 592.670 498.769 C 601.838 499.121, 606.649 498.823, 612.170 497.562 C 616.202 496.641, 621.034 495.126, 622.909 494.194 C 624.784 493.262, 626.785 491.747, 627.355 490.828 C 628.080 489.658, 628.051 488.406, 627.257 486.664 L 626.122 484.174 618.311 486.741 C 611.834 488.869, 608.536 489.318, 599 489.371 C 590.684 489.418, 585.839 488.939, 581.500 487.642 C 578.200 486.656, 572.575 484.255, 569 482.307 C 565.425 480.359, 560.383 476.994, 557.797 474.828 C 555.210 472.663, 551.267 468.158, 549.036 464.816 C 546.804 461.474, 543.980 455.536, 542.760 451.620 C 540.983 445.919, 540.566 442.308, 540.667 433.500 C 540.754 425.869, 541.430 420.103, 542.874 414.675 C 544.019 410.372, 546.204 404.545, 547.728 401.728 C 549.253 398.910, 552.856 394.052, 555.736 390.933 C 558.983 387.417, 563.543 383.917, 567.736 381.723 C 571.456 379.776, 577.650 377.256, 581.500 376.122 C 585.350 374.988, 593.450 373.339, 599.500 372.458 C 605.550 371.577, 617.025 370.830, 625 370.797 C 634.491 370.759, 642.475 371.304, 648.112 372.375 C 652.849 373.276, 659.374 374.919, 662.612 376.027 C 665.850 377.135, 670.878 379.238, 673.784 380.701 C 678.036 382.842, 679.600 383.176, 681.784 382.413 C 683.663 381.756, 684.595 380.651, 684.807 378.826 C 685.042 376.813, 684.318 375.582, 681.749 373.622 C 679.897 372.210, 675.398 369.931, 671.751 368.558 C 668.104 367.185, 660.480 365.079, 654.810 363.878 C 646.072 362.027, 641.068 361.679, 622 361.597 C 609.625 361.544, 594.888 361.886, 589.250 362.358 C 582.874 362.892, 579 362.858, 579 362.270 C 579 361.751, 582.108 357.752, 585.908 353.384 C 589.707 349.016, 596.569 342.116, 601.158 338.051 L 609.500 330.660 610.620 323.580 C 611.236 319.686, 611.660 316.399, 611.562 316.275 C 611.464 316.151, 607.667 318.988, 603.126 322.580 M 614 323.714 C 614 326.982, 614.177 327.252, 615.470 325.958 C 616.348 325.081, 616.704 323.584, 616.354 322.244 C 616.031 321.010, 615.369 320, 614.883 320 C 614.398 320, 614 321.671, 614 323.714 M 873.876 345.506 C 872.433 346.290, 869.831 349.147, 868.093 351.855 C 866.356 354.562, 861.911 362.544, 858.217 369.592 C 852.012 381.431, 851.233 382.474, 848 383.289 C 845.429 383.937, 841.683 387.068, 833.888 395.085 C 826.185 403.009, 822.622 405.996, 820.888 405.985 C 819.575 405.976, 817.905 405.592, 817.178 405.131 C 816.450 404.670, 815.449 402.539, 814.952 400.396 C 814.454 398.253, 814.037 394.378, 814.024 391.785 C 814.006 388.163, 813.552 386.831, 812.066 386.035 C 811.002 385.466, 808.983 385, 807.580 385 C 806.177 385, 803.036 384.467, 800.601 383.816 C 797.125 382.886, 795.262 382.904, 791.937 383.901 C 789.339 384.679, 785.594 387.162, 782.254 390.321 C 779.259 393.154, 775.688 397.382, 774.320 399.717 C 772.140 403.436, 771.970 404.379, 772.945 407.334 C 773.557 409.188, 775.176 411.756, 776.543 413.040 C 778.416 414.800, 780.509 415.482, 785.049 415.810 C 789.929 416.163, 791.471 415.890, 793.181 414.373 C 794.341 413.343, 796.120 410.647, 797.134 408.382 C 798.147 406.117, 799.651 403.704, 800.476 403.020 C 801.300 402.336, 802.570 402.005, 803.298 402.284 C 804.026 402.563, 805.167 404.615, 805.835 406.842 C 806.502 409.070, 808.223 411.817, 809.659 412.946 C 811.469 414.370, 813.742 415, 817.070 415 C 819.710 415, 823.023 414.561, 824.433 414.025 C 825.843 413.489, 829.153 410.789, 831.790 408.025 C 834.426 405.261, 837.135 403, 837.811 403 C 838.566 403, 838.845 403.866, 838.537 405.250 C 838.261 406.488, 836.883 413.800, 835.475 421.500 C 834.067 429.200, 832.732 436.360, 832.509 437.412 C 832.286 438.463, 832.545 440.151, 833.087 441.162 C 833.699 442.307, 835.180 443, 837.012 443 C 838.973 443, 840.453 442.238, 841.452 440.714 C 842.276 439.456, 844.765 431.513, 846.984 423.062 C 849.202 414.612, 852.562 403.908, 854.451 399.275 C 856.339 394.643, 860.005 387.451, 862.596 383.293 C 865.188 379.135, 869.445 373.166, 872.056 370.028 C 875.520 365.866, 878.656 363.400, 883.652 360.911 C 890.136 357.682, 890.517 357.300, 890.811 353.734 C 891.066 350.658, 890.577 349.423, 888.138 346.984 C 885.725 344.571, 884.326 344.008, 880.827 344.040 C 878.447 344.062, 875.319 344.722, 873.876 345.506 M 1024.500 374.161 C 1023.400 374.766, 1021.723 376.214, 1020.773 377.380 C 1019.823 378.546, 1017.885 382.954, 1016.466 387.175 C 1015.047 391.396, 1013.267 395.364, 1012.510 395.991 C 1011.754 396.619, 1008.517 397.516, 1005.318 397.984 C 1002.118 398.453, 996.452 399.998, 992.727 401.418 C 989.002 402.838, 984.647 404, 983.049 404 C 981.450 404, 979.436 403.293, 978.571 402.429 C 977.707 401.564, 976.997 399.202, 976.994 397.179 C 976.991 395.155, 976.542 391.892, 975.996 389.926 C 975.450 387.960, 973.896 385.312, 972.544 384.041 C 970.462 382.085, 969.354 381.813, 965.326 382.267 C 961.496 382.698, 959.977 383.480, 957.534 386.275 C 955.865 388.185, 952.329 392.284, 949.677 395.386 C 947.024 398.487, 943.514 401.717, 941.877 402.564 C 940.240 403.410, 938.054 403.834, 937.020 403.506 C 935.971 403.173, 934.844 401.566, 934.472 399.872 C 934.105 398.201, 934.349 393.952, 935.014 390.428 C 935.678 386.905, 935.935 382.877, 935.584 381.477 C 935.232 380.077, 933.853 378.434, 932.517 377.826 C 930.697 376.997, 929.328 377.036, 927.041 377.983 C 925.364 378.678, 920.281 383.315, 915.746 388.289 C 911.211 393.263, 905.322 399.058, 902.660 401.166 C 899.998 403.275, 896.784 405, 895.517 405 C 894.250 405, 892.957 404.330, 892.643 403.512 C 892.329 402.694, 891.771 399.656, 891.403 396.762 C 891.035 393.868, 890.289 390.938, 889.744 390.250 C 889.200 389.563, 887.438 389, 885.828 389 C 884.218 389, 881.586 389.680, 879.980 390.510 C 878.374 391.341, 876.596 392.886, 876.030 393.945 C 875.463 395.003, 875 396.816, 875 397.974 C 875 399.132, 875.860 401.749, 876.912 403.790 C 877.963 405.830, 880.326 409.032, 882.162 410.904 C 883.998 412.776, 886.850 415.137, 888.500 416.150 C 890.150 417.163, 892.928 417.994, 894.673 417.996 C 896.635 417.999, 899.117 416.970, 901.173 415.303 C 903.003 413.820, 907.283 409.985, 910.685 406.782 C 914.087 403.579, 918.362 400.331, 920.185 399.564 C 922.428 398.621, 923.889 398.493, 924.703 399.169 C 925.365 399.718, 926.612 402.594, 927.474 405.560 C 928.452 408.921, 929.833 411.375, 931.142 412.076 C 932.297 412.694, 934.785 413.200, 936.671 413.200 C 938.746 413.200, 941.560 412.175, 943.800 410.602 C 945.835 409.173, 949.687 406.428, 952.359 404.502 C 955.887 401.959, 958.264 401, 961.037 401 C 963.970 401, 965.335 401.610, 966.927 403.635 C 968.067 405.084, 969 406.789, 969 407.423 C 969 408.057, 970.301 410.134, 971.890 412.038 C 974.584 415.265, 975.179 415.500, 980.640 415.499 C 985.735 415.499, 987.218 415.016, 992 411.807 C 995.025 409.776, 998.625 407.845, 1000 407.516 C 1001.375 407.187, 1005.650 407.584, 1009.500 408.398 C 1015.726 409.715, 1016.758 409.711, 1018.834 408.361 C 1020.117 407.527, 1021.756 405.417, 1022.476 403.672 C 1023.195 401.927, 1024.309 397.940, 1024.950 394.811 C 1025.592 391.682, 1027.023 387.969, 1028.131 386.561 C 1029.239 385.152, 1030.957 384, 1031.950 384 C 1032.943 384, 1034.373 384.744, 1035.128 385.654 C 1036.008 386.715, 1036.498 389.850, 1036.493 394.404 C 1036.488 400.352, 1036.018 402.348, 1033.590 406.740 C 1031.996 409.623, 1028.621 414.552, 1026.089 417.695 C 1023.493 420.918, 1018.755 425.117, 1015.220 427.327 C 1011.773 429.482, 1005.926 432.468, 1002.227 433.963 C 997.814 435.746, 995.083 437.506, 994.288 439.081 C 993.322 440.993, 993.345 441.890, 994.401 443.491 C 995.179 444.670, 997.098 445.635, 999.046 445.827 C 1001.352 446.054, 1004.523 445.055, 1009.433 442.554 C 1013.320 440.574, 1019.518 436.731, 1023.206 434.015 C 1026.894 431.298, 1031.978 426.470, 1034.502 423.287 C 1037.027 420.104, 1040.759 414.125, 1042.796 410 C 1046.282 402.942, 1046.500 401.940, 1046.500 393 C 1046.500 385.702, 1046.063 382.621, 1044.615 379.706 C 1043.578 377.619, 1041.463 375.257, 1039.915 374.456 C 1038.366 373.655, 1034.714 373.014, 1031.800 373.030 C 1028.885 373.047, 1025.600 373.556, 1024.500 374.161 M 721.159 376.981 C 716.571 378.599, 711.396 380.749, 709.659 381.760 C 707.558 382.982, 706.393 384.510, 706.181 386.321 C 705.909 388.646, 706.415 389.275, 709.633 390.620 C 712.781 391.935, 714.072 391.996, 717.452 390.984 C 719.678 390.318, 724.143 388.440, 727.373 386.810 C 731.558 384.698, 733.555 384.155, 734.321 384.921 C 735.086 385.686, 734.808 386.786, 733.354 388.747 C 732.232 390.261, 727.081 394.771, 721.907 398.768 C 716.733 402.766, 711.448 407.266, 710.163 408.768 C 708.877 410.271, 706.975 413.300, 705.935 415.500 C 704.895 417.700, 704.034 420.730, 704.022 422.234 C 704.009 423.836, 705.153 426.259, 706.782 428.083 C 708.882 430.433, 710.661 431.319, 714.032 431.698 C 716.558 431.981, 720.891 431.539, 724 430.681 C 727.025 429.847, 734 427.519, 739.500 425.509 C 745 423.498, 750.288 421.141, 751.250 420.272 C 752.212 419.402, 753 417.725, 753 416.545 C 753 415.365, 752.460 413.860, 751.800 413.200 C 751.140 412.540, 749.428 412, 747.996 412 C 746.563 412, 743.166 413.417, 740.446 415.150 C 737.726 416.882, 733.700 419.122, 731.500 420.128 C 729.300 421.133, 725.868 421.966, 723.872 421.978 C 721.835 421.990, 719.696 421.339, 718.993 420.492 C 718.220 419.561, 717.964 417.611, 718.323 415.399 C 718.643 413.427, 720.097 410.250, 721.555 408.339 C 723.013 406.427, 726.037 403.537, 728.275 401.916 C 730.512 400.295, 734.082 398.691, 736.206 398.351 C 738.331 398.011, 741.179 396.861, 742.535 395.794 C 744.414 394.316, 745 392.913, 745 389.895 C 745 387.718, 744.304 384.269, 743.452 382.232 C 742.601 380.194, 740.948 377.509, 739.778 376.264 C 738.235 374.621, 736.534 374.005, 733.576 374.020 C 731.334 374.031, 725.746 375.363, 721.159 376.981 M 791.311 393.698 C 790.107 393.932, 787.491 395.928, 785.498 398.134 C 782.584 401.359, 782.107 402.424, 783.060 403.572 C 783.712 404.357, 784.977 404.985, 785.872 404.967 C 786.768 404.948, 788.404 404.161, 789.509 403.217 C 790.613 402.273, 792.526 400.202, 793.759 398.615 C 794.991 397.028, 796 395.116, 796 394.365 C 796 393.614, 795.438 393.061, 794.750 393.136 C 794.063 393.211, 792.515 393.464, 791.311 393.698 M 441.323 458.757 C 440.125 458.957, 438.631 459.739, 438.003 460.496 C 437.163 461.508, 437.154 462.418, 437.966 463.936 C 438.573 465.071, 439.984 466, 441.101 466 C 442.218 466, 444.002 465.534, 445.066 464.965 C 446.130 464.395, 447 463.061, 447 462 C 447 460.939, 446.212 459.693, 445.250 459.232 C 444.288 458.771, 442.520 458.557, 441.323 458.757 M 410.053 460.436 C 409.171 461.499, 409.147 462.406, 409.960 463.926 C 410.565 465.055, 412.374 466.659, 413.980 467.490 C 415.586 468.320, 419.061 468.975, 421.700 468.944 C 424.340 468.913, 428.032 468.350, 429.904 467.694 C 431.776 467.037, 433.782 465.739, 434.362 464.809 C 435.165 463.520, 434.973 462.627, 433.553 461.059 C 431.904 459.236, 430.517 459, 421.467 459 C 413.803 459, 410.947 459.359, 410.053 460.436 M 662.500 467.125 C 659.200 468.256, 653.234 470.688, 649.242 472.530 C 645.250 474.371, 641.728 476.545, 641.415 477.360 C 641.102 478.176, 641.375 479.832, 642.022 481.040 C 643.016 482.898, 643.805 483.155, 647.136 482.709 C 649.302 482.418, 652.521 481.108, 654.287 479.797 C 656.054 478.487, 660.458 475.982, 664.073 474.232 C 667.688 472.481, 671.444 470.166, 672.421 469.088 C 673.397 468.009, 673.900 466.648, 673.539 466.063 C 673.178 465.478, 671.896 465.015, 670.691 465.033 C 669.486 465.052, 665.800 465.993, 662.500 467.125 M 633.322 480.326 C 631.574 480.972, 629.832 481.817, 629.452 482.203 C 629.071 482.590, 629.047 484.053, 629.399 485.453 C 629.931 487.572, 630.623 488, 633.519 488 C 635.667 488, 637.766 487.234, 639 486 C 640.100 484.900, 641 483.415, 641 482.700 C 641 481.985, 640.460 480.860, 639.800 480.200 C 639.140 479.540, 638.128 479.034, 637.550 479.076 C 636.972 479.118, 635.070 479.680, 633.322 480.326" stroke="none" fill="#83d3eb" fill-rule="evenodd"/></svg>